<svg width="2000" height="2000" viewBox="0 0 2000 2000" fill="none" xmlns="http://www.w3.org/2000/svg">
<path d="M2000 1000C2000 1552.28 1552.28 2000 1000 2000C447.715 2000 0 1552.28 0 1000C0 447.715 447.715 0 1000 0C1552.28 0 2000 447.715 2000 1000Z" fill="black"/>
<path d="M153 1139V802.7H170.1V1139H153ZM187.2 1139V802.7H204.3V1139H187.2ZM255.6 1139V802.7H289.8V1139H255.6ZM268.14 1282.07H225.39L212.28 1320.83H197.46L245.91 1186.31H247.62L296.64 1320.83H281.25L268.14 1282.07ZM264.15 1270.67L247.05 1220.51L229.38 1270.67H264.15ZM341.145 1139V802.7H358.245V1139H341.145ZM392.445 1139V802.7H409.545V1139H392.445ZM443.745 1139V802.7H512.145V1139H443.745ZM453.435 1221.65C463.695 1221.65 472.245 1225.26 479.085 1232.48L472.245 1243.88L471.675 1246.16L469.965 1245.02C469.585 1243.5 469.205 1242.36 468.825 1241.6C468.065 1240.46 466.735 1239.32 464.835 1238.18C461.415 1235.9 457.235 1234.76 452.295 1234.76C447.355 1234.76 442.605 1236.09 438.045 1238.75C433.485 1241.03 429.875 1244.83 427.215 1250.15C424.175 1255.47 422.655 1261.93 422.655 1269.53V1320.83H407.265V1223.93H423.225L422.655 1241.6C425.315 1235.52 429.495 1230.58 435.195 1226.78C440.895 1223.36 446.975 1221.65 453.435 1221.65ZM529.289 1139V802.7H546.389V1139H529.289ZM563.489 1139V802.7H597.689V1139H563.489ZM666.089 1139V802.7H683.189V1139H666.089ZM604.529 1235.9H583.439V1223.93H604.529V1215.95C604.529 1203.41 607.759 1194.1 614.219 1188.02C620.679 1181.94 629.419 1178.9 640.439 1178.9C646.519 1178.9 652.219 1179.85 657.539 1181.75C662.859 1184.03 667.229 1187.45 670.649 1192.01L662.669 1203.41L660.959 1205.12L659.819 1203.98C659.819 1203.6 659.819 1203.03 659.819 1202.27C659.439 1201.51 659.059 1200.56 658.679 1199.42C657.919 1198.28 656.969 1197.33 655.829 1196.57C653.929 1194.67 651.839 1193.15 649.559 1192.01C647.279 1191.25 644.239 1190.87 640.439 1190.87C633.979 1190.87 628.849 1192.96 625.049 1197.14C621.249 1200.94 619.349 1207.21 619.349 1215.95V1223.93H651.269V1235.9H619.349V1320.83H604.529V1235.9ZM717.434 1139V802.7H734.534V1139H717.434ZM768.734 1139V802.7H785.834V1139H768.734ZM802.934 1139V802.7H837.134V1139H802.934ZM810.344 1221.65C824.024 1221.65 834.474 1225.26 841.694 1232.48C848.914 1239.7 852.524 1252.05 852.524 1269.53V1320.83H835.994V1306.01C830.294 1317.41 819.274 1323.11 802.934 1323.11C792.294 1323.11 783.934 1320.64 777.854 1315.7C771.774 1310.76 768.734 1304.3 768.734 1296.32C768.734 1289.48 771.014 1283.59 775.574 1278.65C779.754 1273.71 785.644 1269.72 793.244 1266.68C800.464 1264.02 808.634 1262.69 817.754 1262.69C825.734 1262.69 832.954 1263.07 839.414 1263.83C838.654 1253.19 835.804 1245.59 830.864 1241.03C825.924 1236.47 818.704 1234.19 809.204 1234.19C804.264 1234.19 799.704 1235.14 795.524 1237.04C790.964 1238.94 786.784 1241.6 782.984 1245.02L775.574 1235.33C784.694 1226.21 796.284 1221.65 810.344 1221.65ZM804.644 1311.71C815.284 1311.71 823.644 1308.48 829.724 1302.02C835.804 1295.94 839.034 1287.2 839.414 1275.8C832.954 1274.66 826.114 1274.09 818.894 1274.09C808.254 1274.09 799.704 1275.99 793.244 1279.79C787.164 1283.21 784.124 1288.53 784.124 1295.75C784.124 1306.39 790.964 1311.71 804.644 1311.71ZM905.578 1139V802.7H939.778V1139H905.578ZM1008.18 1139V802.7H1025.28V1139H1008.18ZM1042.38 1139V802.7H1059.48V1139H1042.38ZM962.008 1223.93H976.828V1241.03C980.628 1235.33 985.378 1230.58 991.078 1226.78C996.778 1223.36 1002.86 1221.65 1009.32 1221.65C1018.06 1221.65 1025.09 1224.88 1030.41 1231.34C1035.35 1238.18 1037.82 1248.44 1037.82 1262.12V1320.83H1023V1262.69C1023 1252.81 1021.48 1245.78 1018.44 1241.6C1015.02 1237.04 1010.65 1234.76 1005.33 1234.76C1000.77 1234.76 996.398 1236.09 992.218 1238.75C987.658 1241.41 983.858 1245.02 980.818 1249.58C978.158 1254.14 976.828 1259.27 976.828 1264.97V1320.83H962.008V1223.93ZM1093.72 1139V802.7H1110.82V1139H1093.72ZM1145.02 1139V802.7H1179.22V1139H1145.02ZM1213.42 1139V802.7H1264.72V1139H1213.42ZM1184.92 1323.11C1181.88 1323.11 1179.03 1321.97 1176.37 1319.69C1174.09 1317.03 1172.95 1314.18 1172.95 1311.14C1172.95 1307.72 1174.09 1304.87 1176.37 1302.59C1179.03 1300.31 1181.88 1299.17 1184.92 1299.17C1188.34 1299.17 1191.19 1300.31 1193.47 1302.59C1196.13 1304.87 1197.46 1307.72 1197.46 1311.14C1197.46 1314.18 1196.13 1317.03 1193.47 1319.69C1191.19 1321.97 1188.34 1323.11 1184.92 1323.11ZM1281.87 1139V802.7H1298.97V1139H1281.87ZM1367.37 1139V802.7H1384.47V1139H1367.37ZM1418.67 1139V802.7H1452.87V1139H1418.67ZM1372.5 1323.11C1365.66 1323.11 1359.2 1321.02 1353.12 1316.84C1347.04 1313.04 1342.1 1307.34 1338.3 1299.74C1334.5 1291.76 1332.6 1282.26 1332.6 1271.24C1332.6 1260.22 1334.5 1250.91 1338.3 1243.31C1342.48 1236.09 1347.61 1230.58 1353.69 1226.78C1359.77 1223.36 1366.23 1221.65 1373.07 1221.65C1379.91 1221.65 1385.61 1222.98 1390.17 1225.64C1395.11 1228.68 1398.91 1232.86 1401.57 1238.18V1180.04H1417.53V1181.18C1416.77 1182.32 1416.2 1183.27 1415.82 1184.03C1415.82 1185.17 1415.82 1186.88 1415.82 1189.16V1306.01C1415.82 1309.43 1416.01 1312.09 1416.39 1313.99C1416.39 1316.27 1416.96 1318.55 1418.1 1320.83H1403.28C1402.14 1318.55 1401.38 1316.27 1401 1313.99C1401 1312.09 1401 1309.43 1401 1306.01C1397.96 1311.33 1393.97 1315.51 1389.03 1318.55C1384.09 1321.59 1378.58 1323.11 1372.5 1323.11ZM1374.78 1309.43C1383.52 1309.43 1389.98 1306.01 1394.16 1299.17C1398.34 1292.33 1400.43 1283.21 1400.43 1271.81C1400.43 1260.41 1398.15 1251.29 1393.59 1244.45C1389.03 1237.61 1382.38 1234.19 1373.64 1234.19C1365.28 1234.19 1358.82 1237.23 1354.26 1243.31C1349.7 1249.77 1347.42 1258.32 1347.42 1268.96C1347.42 1281.5 1349.7 1291.38 1354.26 1298.6C1359.2 1305.82 1366.04 1309.43 1374.78 1309.43ZM1470.01 1139V802.7H1487.11V1139H1470.01ZM1504.21 1139V802.7H1538.41V1139H1504.21ZM1572.61 1139V802.7H1589.71V1139H1572.61ZM1568.62 1323.11C1554.18 1323.11 1542.78 1318.74 1534.42 1310C1525.68 1301.26 1521.31 1288.91 1521.31 1272.95C1521.31 1262.31 1523.4 1253 1527.58 1245.02C1531.38 1237.42 1536.7 1231.72 1543.54 1227.92C1550 1223.74 1557.41 1221.65 1565.77 1221.65C1577.55 1221.65 1587.05 1225.45 1594.27 1233.05C1601.49 1241.03 1605.1 1252.62 1605.1 1267.82C1605.1 1269.34 1605.1 1271.62 1605.1 1274.66H1536.13C1536.51 1286.44 1539.74 1295.37 1545.82 1301.45C1551.9 1307.53 1559.69 1310.57 1569.19 1310.57C1579.45 1310.57 1587.81 1306.96 1594.27 1299.74L1602.82 1308.29C1594.46 1318.17 1583.06 1323.11 1568.62 1323.11ZM1589.71 1262.69C1589.71 1253.57 1587.43 1246.35 1582.87 1241.03C1578.31 1235.71 1572.23 1233.05 1564.63 1233.05C1557.79 1233.05 1551.71 1235.52 1546.39 1240.46C1541.07 1245.4 1537.84 1252.81 1536.7 1262.69H1589.71ZM1658.16 1139V802.7H1726.56V1139H1658.16ZM1743.66 1139V802.7H1760.76V1139H1743.66ZM1794.96 1139V802.7H1812.06V1139H1794.96ZM1795.53 1223.93C1793.25 1235.33 1788.5 1249.39 1781.28 1266.11L1757.91 1320.83H1745.94L1707.75 1223.93H1723.14L1752.78 1299.74L1768.74 1263.83C1775.2 1249.39 1779.38 1236.09 1781.28 1223.93H1795.53Z" fill="white" fill-opacity="0.81"/>
</svg>
